<?xml version="1.0" encoding="UTF-8" standalone="no"?>
<svg
   xmlns:dc="http://purl.org/dc/elements/1.1/"
   xmlns:cc="http://creativecommons.org/ns#"
   xmlns:rdf="http://www.w3.org/1999/02/22-rdf-syntax-ns#"
   xmlns:svg="http://www.w3.org/2000/svg"
   xmlns="http://www.w3.org/2000/svg"
   xmlns:sodipodi="http://sodipodi.sourceforge.net/DTD/sodipodi-0.dtd"
   xmlns:inkscape="http://www.inkscape.org/namespaces/inkscape"
   viewBox="0 0 187.064 22.475"
   version="1.1"
   id="svg22"
   sodipodi:docname="Asset 2.svg"
   width="187.064"
   height="22.475"
   inkscape:version="0.92.4 (5da689c313, 2019-01-14)">
  <metadata
     id="metadata26">
    <rdf:RDF>
      <cc:Work
         rdf:about="">
        <dc:format>image/svg+xml</dc:format>
        <dc:type
           rdf:resource="http://purl.org/dc/dcmitype/StillImage" />
        <dc:title>Asset 2</dc:title>
      </cc:Work>
    </rdf:RDF>
  </metadata>
  <sodipodi:namedview
     pagecolor="#ffffff"
     bordercolor="#666666"
     borderopacity="1"
     objecttolerance="10"
     gridtolerance="10"
     guidetolerance="10"
     inkscape:pageopacity="0"
     inkscape:pageshadow="2"
     inkscape:window-width="1366"
     inkscape:window-height="745"
     id="namedview24"
     showgrid="false"
     inkscape:zoom="3.8205627"
     inkscape:cx="108.34662"
     inkscape:cy="20.450124"
     inkscape:window-x="-8"
     inkscape:window-y="-8"
     inkscape:window-maximized="1"
     inkscape:current-layer="svg22" />
  <defs
     id="defs4">
    <style
       id="style2">.cls-1{font-size:30px;font-family:SegoeUI-Semibold, Segoe UI;font-weight:600;}.cls-2{fill:#1b1b1b;}.cls-3{fill:#e81d26;}</style>
  </defs>
  <title
     id="title6">Asset 2</title>
  <g
     id="Layer_2"
     data-name="Layer 2"
     transform="translate(-1.2451172,-3.3765624)">
    <g
       id="Layer_1-2"
       data-name="Layer 1">
      <text
         class="cls-1"
         transform="translate(0,25.5)"
         id="text8"
         style="font-weight:600;font-size:30px;font-family:SegoeUI-Semibold, 'Segoe UI'">Ga</text>
      <text
         class="cls-1"
         transform="translate(78.71,25.5)"
         id="text10"
         style="font-weight:600;font-size:30px;font-family:SegoeUI-Semibold, 'Segoe UI'">e House</text>
      <path
         class="cls-2"
         d="m 49.49,25.63 h -0.66 c 0,-0.24 -0.26,-0.2 -0.41,-0.22 a 6.17,6.17 0 0 1 -5.25,-5.83 20.41,20.41 0 0 1 1,-8.8 14.49,14.49 0 0 1 2.94,-5.3 5.52,5.52 0 0 1 7,-1.4 9.1,9.1 0 0 1 2,1.31 4.5,4.5 0 0 0 2.34,1.1 c -0.09,0.28 0.16,0.4 0.3,0.54 q 7.21,7.2 14.44,14.4 c 0.24,0.24 0.42,0.57 0.79,0.65 a 1.41,1.41 0 0 1 -0.1,0.31 6.12,6.12 0 0 1 -4.85,3.08 4.45,4.45 0 0 1 -5,-4.53 c 0,-0.48 0,-1 0,-1.44 a 0.6,0.6 0 0 0 -0.31,-0.59 q -2.19,-1.39 -4.36,-2.82 a 0.47,0.47 0 0 0 -0.58,0 c -1.43,0.93 -2.87,1.84 -4.32,2.75 a 0.63,0.63 0 0 0 -0.35,0.63 c 0,0.55 0,1.1 0,1.64 a 4.44,4.44 0 0 1 -4.16,4.37 c -0.16,0.03 -0.37,-0.09 -0.46,0.15 z m 4,-15.16 a 1,1 0 0 0 -0.85,-1 2.83,2.83 0 0 0 -0.65,0 c -0.35,0 -0.49,-0.09 -0.45,-0.44 a 2.26,2.26 0 0 0 0,-0.52 1.0003125,1.0003125 0 1 0 -2,0.05 c 0,0.87 0,0.87 -0.89,0.91 h -0.06 a 1,1 0 0 0 -1,1 1,1 0 0 0 1,1 c 0.3,0 0.7,-0.15 0.87,0.08 0.17,0.23 0.05,0.59 0.07,0.89 a 1,1 0 0 0 1,1 1,1 0 0 0 1,-1 c 0,-0.3 -0.13,-0.68 0.09,-0.87 0.22,-0.19 0.58,-0.05 0.89,-0.08 a 1,1 0 0 0 0.97,-1.02 z"
         id="path12"
         inkscape:connector-curvature="0"
         style="fill:#1b1b1b" />
      <path
         class="cls-3"
         d="M 74,22.08 C 73.63,22 73.45,21.67 73.21,21.43 Q 66,14.25 58.77,7 C 58.63,6.86 58.38,6.74 58.47,6.46 A 4.47,4.47 0 0 0 60.85,5.91 C 61.37,5.56 61.91,5.23 62.41,4.85 A 6.62,6.62 0 0 1 65,3.64 c 2.09,2 4.07,4 6.12,6 l 3,3 c 0.07,0.07 0.19,0.41 0.34,0 0.21,0.48 -0.06,1.08 0.35,1.52 v 6.44 c -0.18,0.07 -0.21,0.25 -0.27,0.41 A 2.36,2.36 0 0 1 74,22.08 Z M 67.93,8.24 A 0.89,0.89 0 0 0 67,7.39 a 1.17,1.17 0 0 0 -0.92,0.88 1,1 0 0 0 1,0.81 0.82,0.82 0 0 0 0.85,-0.84 z m -2.21,2.19 a 0.85,0.85 0 0 0 -0.82,-0.84 0.9,0.9 0 0 0 -0.89,0.86 0.91,0.91 0 0 0 0.91,0.84 0.84,0.84 0 0 0 0.8,-0.86 z m 3.46,0.86 a 0.82,0.82 0 0 0 0.89,-0.82 0.85,0.85 0 0 0 -0.85,-0.88 0.78,0.78 0 0 0 -0.82,0.88 0.8,0.8 0 0 0 0.78,0.82 z m -1.25,1.38 a 0.8,0.8 0 0 0 -0.79,-0.86 c -0.44,0 -1,0.46 -1,0.83 a 1.14,1.14 0 0 0 1,0.85 0.84,0.84 0 0 0 0.79,-0.82 z"
         id="path14"
         inkscape:connector-curvature="0"
         style="fill:#e81d26" />
      <path
         class="cls-2"
         d="m 65,3.64 a 5.05,5.05 0 0 1 4.11,0.4 8,8 0 0 1 3,2.92 13.15,13.15 0 0 1 2,4.73 c 0.06,0.33 0.24,0.64 0.27,1 -0.15,0.37 -0.27,0 -0.34,0 l -3,-3 C 69.07,7.68 67.09,5.6 65,3.64 Z"
         id="path16"
         inkscape:connector-curvature="0"
         style="fill:#1b1b1b" />
      <path
         class="cls-3"
         d="m 57.91,21.83 v -0.19 c 0,-1.75 0,-1.36 1.57,-1.4 a 0.51,0.51 0 0 1 0.55,0.57 c 0,0.59 0,1.18 0,1.77 0,0.59 -0.24,0.71 -0.76,0.74 -1.36,0.07 -1.36,0.07 -1.36,-1.29 z"
         id="path18"
         inkscape:connector-curvature="0"
         style="fill:#e81d26" />
    </g>
  </g>
</svg>
