<?xml version="1.0" encoding="UTF-8" standalone="no"?>
<!-- Generator: Adobe Illustrator 19.0.0, SVG Export Plug-In . SVG Version: 6.00 Build 0)  -->

<svg
   xmlns:dc="http://purl.org/dc/elements/1.1/"
   xmlns:cc="http://creativecommons.org/ns#"
   xmlns:rdf="http://www.w3.org/1999/02/22-rdf-syntax-ns#"
   xmlns:svg="http://www.w3.org/2000/svg"
   xmlns="http://www.w3.org/2000/svg"
   xmlns:sodipodi="http://sodipodi.sourceforge.net/DTD/sodipodi-0.dtd"
   xmlns:inkscape="http://www.inkscape.org/namespaces/inkscape"
   version="1.1"
   id="Capa_1"
   x="0px"
   y="0px"
   viewBox="0 0 512.076 512.076"
   style="enable-background:new 0 0 512.076 512.076;"
   xml:space="preserve"
   sodipodi:docname="phone.svg"
   inkscape:version="0.92.4 (5da689c313, 2019-01-14)"><metadata
   id="metadata51"><rdf:RDF><cc:Work
       rdf:about=""><dc:format>image/svg+xml</dc:format><dc:type
         rdf:resource="http://purl.org/dc/dcmitype/StillImage" /></cc:Work></rdf:RDF></metadata><defs
   id="defs49" /><sodipodi:namedview
   pagecolor="#ffffff"
   bordercolor="#666666"
   borderopacity="1"
   objecttolerance="10"
   gridtolerance="10"
   guidetolerance="10"
   inkscape:pageopacity="0"
   inkscape:pageshadow="2"
   inkscape:window-width="1366"
   inkscape:window-height="745"
   id="namedview47"
   showgrid="false"
   inkscape:zoom="0.4608691"
   inkscape:cx="-352.5947"
   inkscape:cy="548.96282"
   inkscape:window-x="-8"
   inkscape:window-y="-8"
   inkscape:window-maximized="1"
   inkscape:current-layer="Capa_1" />
<g
   transform="matrix(0.99985203,0,0,0.99992296,-0.99985197,-0.94189442)"
   id="g14"
   style="fill:#ffffff;fill-opacity:1">
	<g
   id="g12"
   style="fill:#ffffff;fill-opacity:1">
		<g
   id="g10"
   style="fill:#ffffff;fill-opacity:1">
			<path
   d="m 499.639,396.039 -103.646,-69.12 c -13.153,-8.701 -30.784,-5.838 -40.508,6.579 l -30.191,38.818 c -3.88,5.116 -10.933,6.6 -16.546,3.482 l -5.743,-3.166 c -19.038,-10.377 -42.726,-23.296 -90.453,-71.04 -47.727,-47.744 -60.672,-71.45 -71.049,-90.453 l -3.149,-5.743 c -3.161,-5.612 -1.705,-12.695 3.413,-16.606 l 38.792,-30.182 c 12.412,-9.725 15.279,-27.351 6.588,-40.508 L 118.027,14.454 C 109.12,1.056 91.25,-2.966 77.461,5.323 L 34.12,31.358 C 20.502,39.364 10.511,52.33 6.242,67.539 -9.365,124.405 2.376,222.547 146.948,367.136 c 115.004,114.995 200.619,145.92 259.465,145.92 13.543,0.058 27.033,-1.704 40.107,-5.239 15.212,-4.264 28.18,-14.256 36.181,-27.878 l 26.061,-43.315 c 8.301,-13.792 4.281,-31.673 -9.123,-40.585 z m -5.581,31.829 -26.001,43.341 c -5.745,9.832 -15.072,17.061 -26.027,20.173 -52.497,14.413 -144.213,2.475 -283.008,-136.32 C 20.227,216.267 8.29,124.559 22.703,72.054 25.819,61.086 33.057,51.747 42.901,45.993 L 86.242,19.992 c 5.983,-3.6 13.739,-1.855 17.604,3.959 l 37.547,56.371 31.514,47.266 c 3.774,5.707 2.534,13.356 -2.85,17.579 l -38.801,30.182 c -11.808,9.029 -15.18,25.366 -7.91,38.332 l 3.081,5.598 c 10.906,20.002 24.465,44.885 73.967,94.379 49.502,49.493 74.377,63.053 94.37,73.958 l 5.606,3.089 c 12.965,7.269 29.303,3.898 38.332,-7.91 l 30.182,-38.801 c 4.224,-5.381 11.87,-6.62 17.579,-2.85 l 103.637,69.12 c 5.818,3.862 7.563,11.622 3.958,17.604 z"
   id="path2"
   style="fill:#ffffff;fill-opacity:1"
   inkscape:connector-curvature="0" />
			<path
   d="m 291.161,86.39 c 80.081,0.089 144.977,64.986 145.067,145.067 0,4.713 3.82,8.533 8.533,8.533 4.713,0 8.533,-3.82 8.533,-8.533 -0.099,-89.503 -72.63,-162.035 -162.133,-162.133 -4.713,0 -8.533,3.82 -8.533,8.533 0,4.713 3.82,8.533 8.533,8.533 z"
   id="path4"
   style="fill:#ffffff;fill-opacity:1"
   inkscape:connector-curvature="0" />
			<path
   d="m 291.161,137.59 c 51.816,0.061 93.806,42.051 93.867,93.867 0,4.713 3.821,8.533 8.533,8.533 4.713,0 8.533,-3.82 8.533,-8.533 -0.071,-61.238 -49.696,-110.863 -110.933,-110.933 -4.713,0 -8.533,3.82 -8.533,8.533 0,4.713 3.82,8.533 8.533,8.533 z"
   id="path6"
   style="fill:#ffffff;fill-opacity:1"
   inkscape:connector-curvature="0" />
			<path
   d="m 291.161,188.79 c 23.552,0.028 42.638,19.114 42.667,42.667 0,4.713 3.821,8.533 8.533,8.533 4.712,0 8.533,-3.82 8.533,-8.533 -0.038,-32.974 -26.759,-59.696 -59.733,-59.733 -4.713,0 -8.533,3.82 -8.533,8.533 0,4.713 3.82,8.533 8.533,8.533 z"
   id="path8"
   style="fill:#ffffff;fill-opacity:1"
   inkscape:connector-curvature="0" />
		</g>
	</g>
</g>
<g
   id="g16">
</g>
<g
   id="g18">
</g>
<g
   id="g20">
</g>
<g
   id="g22">
</g>
<g
   id="g24">
</g>
<g
   id="g26">
</g>
<g
   id="g28">
</g>
<g
   id="g30">
</g>
<g
   id="g32">
</g>
<g
   id="g34">
</g>
<g
   id="g36">
</g>
<g
   id="g38">
</g>
<g
   id="g40">
</g>
<g
   id="g42">
</g>
<g
   id="g44">
</g>
</svg>